<svg width="22" height="20" viewBox="0 0 22 20" fill="none" xmlns="http://www.w3.org/2000/svg">
<path d="M11.0001 19.4533C10.6247 19.4532 10.2612 19.3211 9.97342 19.08C9.14676 18.36 8.40009 17.7467 7.66676 17.1067C5.84424 15.659 4.13279 14.0768 2.54676 12.3733C1.17379 10.9365 0.384793 9.04004 0.333422 7.05334C0.31505 5.39313 0.908308 3.78421 2.00009 2.53334C2.55955 1.90149 3.24736 1.39625 4.01761 1.05137C4.78786 0.706478 5.62282 0.529874 6.46676 0.533345C7.3408 0.534142 8.20319 0.733841 8.98862 1.11731C9.77405 1.50079 10.4619 2.05798 11.0001 2.74668C11.5383 2.05798 12.2261 1.50079 13.0116 1.11731C13.797 0.733841 14.6594 0.534142 15.5334 0.533345C16.3774 0.529874 17.2123 0.706478 17.9826 1.05137C18.7528 1.39625 19.4406 1.90149 20.0001 2.53334C21.0919 3.78421 21.6851 5.39313 21.6668 7.05334C21.6187 9.04467 20.8294 10.9464 19.4534 12.3867C17.883 14.0744 16.1895 15.6431 14.3868 17.08C13.6001 17.7333 12.8534 18.4133 12.0534 19.0667C11.7605 19.3185 11.3864 19.4558 11.0001 19.4533ZM6.46676 2.53334C5.90533 2.53448 5.35044 2.65379 4.83816 2.88351C4.32588 3.11323 3.8677 3.44822 3.49342 3.86668C2.72974 4.75111 2.31701 5.88494 2.33342 7.05334C2.40309 8.55367 3.01968 9.97656 4.06676 11.0533C5.57033 12.6528 7.18791 14.1412 8.90676 15.5067L11.0001 17.32C11.7201 16.6933 12.3334 16.1333 13.0401 15.5867C14.7761 14.2025 16.4113 12.6964 17.9334 11.08C18.9805 10.0032 19.5971 8.58034 19.6668 7.08001C19.6832 5.91161 19.2704 4.77778 18.5068 3.89334C18.1325 3.47488 17.6743 3.1399 17.162 2.91018C16.6497 2.68046 16.0948 2.56115 15.5334 2.56001C14.8956 2.57081 14.2701 2.73818 13.7122 3.0474C13.1542 3.35662 12.6807 3.79821 12.3334 4.33334C12.1843 4.5483 12.0463 4.77082 11.9201 5.00001C11.8264 5.14875 11.6966 5.27131 11.5427 5.35626C11.3888 5.4412 11.2159 5.48575 11.0401 5.48575C10.8643 5.48575 10.6914 5.4412 10.5375 5.35626C10.3836 5.27131 10.2538 5.14875 10.1601 5.00001C10.0339 4.77082 9.89592 4.5483 9.74676 4.33334C9.39518 3.78201 8.91039 3.32811 8.33715 3.01352C7.7639 2.69893 7.12065 2.5338 6.46676 2.53334Z" fill="#0D1C63"/>
</svg>
