<svg width="21" height="20" viewBox="0 0 21 20" fill="none" xmlns="http://www.w3.org/2000/svg">
<path fill-rule="evenodd" clip-rule="evenodd" d="M6.39004 19.25C6.49662 19.5838 6.78353 19.828 7.13004 19.88C7.27653 19.8903 7.42355 19.8903 7.57004 19.88C9.87004 19.88 12.34 17.36 13.19 16.4H13.63C17.7306 16.3179 20.9958 12.941 20.94 8.84V7.71C21.007 3.59572 17.734 0.202078 13.62 0.119995H8.26004C4.45074 0.198991 1.31673 3.14306 1.00004 6.94C0.984849 7.19644 0.984849 7.45355 1.00004 7.71V8.85999C1.00004 9.10999 1.05004 9.35 1.07004 9.6C1.35158 13.093 4.03546 15.9144 7.51004 16.37C7.51475 16.4065 7.51475 16.4435 7.51004 16.48C7.42948 17.1613 7.12732 17.7972 6.65004 18.29C6.53819 18.4217 6.46239 18.5802 6.43004 18.75C6.38193 18.912 6.3683 19.0824 6.39004 19.25ZM13.62 14.5H12.76C12.4914 14.5071 12.2394 14.6313 12.07 14.84C11.2346 15.8333 10.2614 16.7021 9.18004 17.42C9.18004 17.29 9.23004 17.16 9.26004 17.04C9.29004 16.92 9.26004 17.04 9.26004 16.96C9.2649 16.8634 9.2649 16.7666 9.26004 16.67C9.26004 16.62 9.26004 16.57 9.26004 16.52C9.26501 16.4501 9.26501 16.3799 9.26004 16.31V16.13C9.26004 16.06 9.26004 16 9.26004 15.93C9.25508 15.8868 9.25508 15.8432 9.26004 15.8C9.23406 15.558 9.18037 15.3198 9.10004 15.09C8.96618 14.7247 8.61909 14.4813 8.23004 14.48C5.17099 14.4198 2.73543 11.8993 2.78004 8.84V7.71C2.7425 6.22412 3.30038 4.78487 4.32957 3.71248C5.35876 2.64009 6.77388 2.02354 8.26004 2H13.62C16.4577 2.07349 18.7807 4.2799 19 7.11C19 7.31 19.05 7.50999 19.05 7.71V8.85999C19.0438 9.04081 19.0271 9.2211 19 9.39999C18.7893 12.2326 16.4598 14.4408 13.62 14.5Z" fill="#0D1C63"/>
</svg>
