<svg width="94" height="28" viewBox="0 0 94 28" fill="none" xmlns="http://www.w3.org/2000/svg">
<g clip-path="url(#clip0)">
<path d="M38.1335 6.10782H33.387V22.3893H38.1335V6.10782Z" fill="#0D1C63"/>
<path d="M38.1335 0H33.387V4.07486H38.1335V0Z" fill="#0D1C63"/>
<path d="M23.7506 5.74063C19.7743 5.74063 17.0607 7.03921 17.0607 7.03921L18.3234 10.4961C18.3234 10.4961 20.8579 9.63637 23.7506 9.63637C26.5448 9.63637 26.5985 12.8873 26.5985 13.1022V13.1112C25.497 12.6813 24.2073 12.4306 22.8282 12.4306C17.5353 12.4306 15.583 14.9561 15.583 17.7771C15.583 20.9116 18.3324 22.7655 21.7266 22.7655C23.7148 22.7655 25.4791 21.8968 26.6075 20.5445V22.3893H31.354V12.6097C31.354 7.60342 27.7269 5.74063 23.7506 5.74063ZM23.1595 19.5951C21.5027 19.5951 20.2668 19.1115 20.2668 17.5801C20.2668 16.2009 21.1176 15.0725 23.7058 15.0725C24.9059 15.0725 25.9627 15.4576 26.6075 16.0487C26.5179 18.9593 24.8163 19.5951 23.1595 19.5951Z" fill="#0D1C63"/>
<path d="M52.5701 8.38256C51.182 6.75262 49.2207 5.73167 47.0534 5.73167C42.8442 5.73167 39.4321 9.54681 39.4321 14.2486C39.4321 18.9503 42.8442 22.7655 47.0534 22.7655C49.2296 22.7655 51.1909 21.7445 52.5701 20.1146V22.3893H57.3167V0H52.5701V8.38256ZM48.3968 18.9145C46.0862 18.9145 44.2234 16.8189 44.2234 14.2396C44.2234 11.6604 46.0951 9.56472 48.3968 9.56472C50.7073 9.56472 52.5701 11.6604 52.5701 14.2396C52.5701 16.8278 50.7073 18.9145 48.3968 18.9145Z" fill="#0D1C63"/>
<path d="M16.0666 6.10781H10.308L4.74654 11.6693V0H0V22.3893H4.74654V17.4279L6.53768 15.6367L11.2663 22.3893H16.4785L9.60054 12.5649L16.0666 6.10781Z" fill="#0D1C63"/>
<path d="M67.1411 5.72272C62.4394 5.72272 58.6242 9.53786 58.6242 14.2396C58.6242 18.9414 62.4394 22.7565 67.1411 22.7565C70.8488 22.7565 72.9802 21.655 74.5565 19.8638L71.9324 17.2398C71.0369 18.3682 69.5592 19.0936 67.1501 19.0936C65.3679 19.0936 63.8633 17.6518 63.3618 15.6725H75.658C75.658 14.365 75.6938 13.1739 75.3893 12.1082C74.2161 7.97061 70.7682 5.72272 67.1411 5.72272ZM63.3707 12.7798C63.8723 10.8006 65.3768 9.3677 67.1501 9.3677C68.9233 9.3677 70.4279 10.8006 70.9294 12.7798H63.3707Z" fill="#0D1C63"/>
<path d="M93.7307 12.1171C92.5575 7.97059 89.1006 5.73166 85.4825 5.73166C80.7807 5.73166 76.9656 9.5468 76.9656 14.2486C76.9656 18.9503 80.7807 22.7655 85.4825 22.7655C89.1901 22.7655 91.3216 21.6639 92.8978 19.8728L90.2738 17.2487C89.3782 18.3772 87.9005 19.1026 85.4914 19.1026C83.7092 19.1026 82.2047 17.6607 81.7032 15.6815H93.9994C93.9994 14.3739 94.0263 13.1828 93.7307 12.1171ZM81.7032 12.7798C82.2047 10.8006 83.7092 9.36769 85.4825 9.36769C87.2557 9.36769 88.7603 10.8006 89.2618 12.7798H81.7032Z" fill="#0D1C63"/>
</g>
<defs>
<clipPath id="clip0">
<rect width="94" height="28" fill="white"/>
</clipPath>
</defs>
</svg>
