<svg width="20" height="16" viewBox="0 0 20 16" fill="none" xmlns="http://www.w3.org/2000/svg">
<path d="M1.25 2.66667H18.75C19.4375 2.66667 20 2.06667 20 1.33333C20 0.6 19.4375 0 18.75 0H1.25C0.5625 0 0 0.6 0 1.33333C0 2.06667 0.5625 2.66667 1.25 2.66667Z" fill="#0D1C63"/>
<path d="M18.75 6.66663H1.25C0.5625 6.66663 0 7.26663 0 7.99996C0 8.73329 0.5625 9.33329 1.25 9.33329H18.75C19.4375 9.33329 20 8.73329 20 7.99996C20 7.26663 19.4375 6.66663 18.75 6.66663Z" fill="#0D1C63"/>
<path d="M18.75 13.3334H1.25C0.5625 13.3334 0 13.9334 0 14.6667C0 15.4 0.5625 16 1.25 16H18.75C19.4375 16 20 15.4 20 14.6667C20 13.9334 19.4375 13.3334 18.75 13.3334Z" fill="#0D1C63"/>
</svg>
